<svg id="screenshot" viewBox="280.2665 192.2665 503.46700000000004 503.46700000000004" width="503.46700000000004" height="503.46700000000004" version="1.1" xmlns="http://www.w3.org/2000/svg" xmlns:xlink="http://www.w3.org/1999/xlink" style="-webkit-print-color-adjust: exact;"><g id="shape-18a5ae20-a003-11ec-908f-b1bd8f94c46c" y="0px" xml:space="preserve" xmlns:xlink="http://www.w3.org/1999/xlink" x="0px" version="1.1"><g id="shape-18a69880-a003-11ec-908f-b1bd8f94c46c"><g id="shape-18a93090-a003-11ec-908f-b1bd8f94c46c"><path d="M642.9335,196.5335L642.9335,264.8005L386.9335,264.8005C368.16049999999996,264.8005,352.80049999999994,280.1605,352.80049999999994,298.9335L352.80049999999994,589.0665C352.80049999999994,607.8395,337.4405,623.1995,318.66749999999996,623.1995C299.8945,623.1995,284.5335,607.8395,284.5335,589.0665L284.5335,196.5335L642.9335,196.5335ZZM421.0665,298.9335L421.0665,623.2004999999999L318.6665,623.2004999999999C337.4395,623.2004999999999,352.7995,607.8405,352.7995,589.0675L352.7995,298.9335C352.7995,280.1605,368.1595,264.8005,386.9325,264.8005C405.70550000000003,264.8005,421.0665,280.1595,421.0665,298.9335ZZ" style="fill: rgb(255, 255, 255); fill-opacity: 0.5;"/></g><g id="shape-18a9a5c0-a003-11ec-908f-b1bd8f94c46c"><path d="M779.4665,298.9335L779.4665,691.4665L421.0665,691.4665L421.0665,623.1995L421.0665,298.9335C421.0665,280.1605,405.7065,264.8005,386.9335,264.8005L642.9335000000001,264.8005L745.3335,264.8005C764.1065,264.7995,779.4665,280.1595,779.4665,298.9335Z" style="fill: rgb(255, 255, 255); fill-opacity: 1;"/></g></g><g id="shape-18b0aaa0-a003-11ec-908f-b1bd8f94c46c"><path d="M779.4665,695.7335L421.0665,695.7335C418.5065,695.7335,416.7995,694.0264999999999,416.7995,691.4665L416.7995,627.4665L369.8665,627.4665C367.3065,627.4665,365.59950000000003,625.7595,365.59950000000003,623.1995C365.59950000000003,620.6395,367.3065,618.9325,369.8665,618.9325L416.79949999999997,618.9325L416.79949999999997,298.9325C416.79949999999997,282.71950000000004,403.1465,269.0655,386.9325,269.0655C370.7185,269.0655,357.0665,282.71950000000004,357.0665,298.9335L357.0665,589.0665C357.0665,610.3995,339.9995,627.4665,318.6665,627.4665C297.3335,627.4665,280.2665,610.3995,280.2665,589.0665L280.2665,196.5335C280.2665,193.9735,281.9735,192.2665,284.5335,192.2665L642.9335,192.2665C645.4935,192.2665,647.2004999999999,193.9735,647.2004999999999,196.5335L647.2004999999999,230.6665C647.2004999999999,233.22650000000002,645.4935,234.9335,642.9335,234.9335C640.3734999999999,234.9335,638.6665,233.22650000000002,638.6665,230.6665L638.6665,200.7995L288.7995,200.7995L288.7995,589.0665C288.7995,605.2795000000001,302.4525,618.9335000000001,318.6665,618.9335000000001C334.8805,618.9335000000001,348.5335,605.2805000000001,348.5335,589.0665L348.5335,298.9335C348.5335,277.6005,365.6005,260.5335,386.9335,260.5335C408.2665,260.5335,425.3335,277.6005,425.3335,298.9335L425.3335,687.2004999999999L775.2005,687.2004999999999L775.2005,298.9335C775.2005,282.7205,761.5475,269.0665,745.3335,269.0665L446.66650000000004,269.0665C444.1065,269.0665,442.3995,267.3595,442.3995,264.7995C442.3995,262.2395,444.1065,260.5325,446.66650000000004,260.5325L745.3335,260.5325C766.6665,260.5325,783.7335,277.59950000000003,783.7335,298.9325L783.7335,691.4665C783.7335,694.0264999999999,782.0264999999999,695.7335,779.4665,695.7335ZL779.4665,695.7335ZM685.5995,618.9335C683.0395000000001,618.9335,681.3325,617.2265,681.3325,614.6665L681.3325,610.3995C666.8255,608.6925,655.7325000000001,595.8924999999999,655.7325000000001,580.5325C655.7325000000001,577.9725,657.4395,576.2655,659.9995,576.2655C662.5595000000001,576.2655,664.2665,577.9725,664.2665,580.5325C664.2665,592.4794999999999,673.6535,601.8654999999999,685.5995,601.8654999999999C697.5464999999999,601.8654999999999,706.9324999999999,592.4784999999999,706.9324999999999,580.5325C706.9324999999999,568.5854999999999,697.5455,559.1995,685.5995,559.1995C669.3865,559.1995,655.7325,545.5464999999999,655.7325,529.3325C655.7325,513.9725,666.8254999999999,502.02549999999997,681.3325,499.46549999999996L681.3325,495.19849999999997C681.3325,492.63849999999996,683.0395,490.93149999999997,685.5995,490.93149999999997C688.1595,490.93149999999997,689.8665,492.63849999999996,689.8665,495.19849999999997L689.8665,499.46549999999996C704.3734999999999,501.17249999999996,715.4665,513.9725,715.4665,529.3325C715.4665,531.8924999999999,713.7595,533.5995,711.1995,533.5995C708.6395,533.5995,706.9325,531.8924999999999,706.9325,529.3325C706.9325,517.3855,697.5455,507.99949999999995,685.5995,507.99949999999995C673.6524999999999,507.99949999999995,664.2665,517.3865,664.2665,529.3325C664.2665,541.2784999999999,673.6535,550.6654999999998,685.5995,550.6654999999998C701.8125,550.6654999999998,715.4665,564.3184999999999,715.4665,580.5324999999999C715.4665,595.8924999999999,704.3734999999999,607.8394999999999,689.8665,610.3995L689.8665,614.6664999999999C689.8665000000001,617.2265,688.1595,618.9335,685.5995,618.9335ZL685.5995,618.9335ZM600.2665,610.3995L531.9995,610.3995C529.4395,610.3995,527.7325000000001,608.6925,527.7325000000001,606.1324999999999C527.7325000000001,603.5725,529.4395,601.8655,531.9995,601.8655L600.2665,601.8655C602.8265,601.8655,604.5335,603.5725,604.5335,606.1324999999999C604.5335,608.6935000000001,602.8265,610.3995,600.2665,610.3995ZL600.2665,610.3995ZM497.8665,610.3995L489.3335,610.3995C486.7735,610.3995,485.0665,608.6925,485.0665,606.1324999999999C485.0665,603.5725,486.7735,601.8655,489.3335,601.8655L497.8665,601.8655C500.42650000000003,601.8655,502.1335,603.5725,502.1335,606.1324999999999C502.1335,608.6935000000001,500.42650000000003,610.3995,497.8665,610.3995ZL497.8665,610.3995ZM608.7995000000001,559.1995L531.9995,559.1995C529.4395,559.1995,527.7325000000001,557.4925000000001,527.7325000000001,554.9325C527.7325000000001,552.3725,529.4395,550.6655000000001,531.9995,550.6655000000001L608.7995000000001,550.6655000000001C611.3595,550.6655000000001,613.0665,552.3725,613.0665,554.9325C613.0665,557.4925000000001,611.3595,559.1995,608.7995000000001,559.1995ZL608.7995000000001,559.1995ZM497.8665,559.1995L489.3335,559.1995C486.7735,559.1995,485.0665,557.4925000000001,485.0665,554.9325C485.0665,552.3725,486.7735,550.6655000000001,489.3335,550.6655000000001L497.8665,550.6655000000001C500.42650000000003,550.6655000000001,502.1335,552.3725,502.1335,554.9325C502.1335,557.4925000000001,500.42650000000003,559.1995,497.8665,559.1995ZL497.8665,559.1995ZM591.7335,507.9995L532.0005,507.9995C529.4404999999999,507.9995,527.7335,506.2925,527.7335,503.7325C527.7335,501.1725,529.4404999999999,499.4655,532.0005,499.4655L591.7335,499.4655C594.2935,499.4655,596.0005,501.1725,596.0005,503.7325C595.9995,506.2935,594.2935,507.9995,591.7335,507.9995ZL591.7335,507.9995ZM497.8665,507.9995L489.3335,507.9995C486.7735,507.9995,485.0665,506.2925,485.0665,503.7325C485.0665,501.1725,486.7735,499.4655,489.3335,499.4655L497.8665,499.4655C500.42650000000003,499.4655,502.1335,501.1725,502.1335,503.7325C502.1335,506.2935,500.42650000000003,507.9995,497.8665,507.9995ZL497.8665,507.9995ZM711.1995,422.66650000000004L489.3335,422.66650000000004C486.7735,422.66650000000004,485.0665,420.95950000000005,485.0665,418.3995C485.0665,415.83950000000004,486.7735,414.13250000000005,489.3335,414.13250000000005L711.2004999999999,414.13250000000005C713.7605,414.13250000000005,715.4675,415.83950000000004,715.4675,418.3995C715.4675,420.95950000000005,713.7595,422.66650000000004,711.1995,422.66650000000004ZL711.1995,422.66650000000004ZM677.0665,371.4665L625.8665000000001,371.4665C623.3065,371.4665,621.5995,369.7595,621.5995,367.1995C621.5995,364.6395,623.3065,362.9325,625.8665000000001,362.9325L677.0665,362.9325C679.6265000000001,362.9325,681.3335,364.6395,681.3335,367.1995C681.3335,369.7595,679.6265000000001,371.4665,677.0665,371.4665ZL677.0665,371.4665ZM591.7335,371.4665L489.33349999999996,371.4665C486.7735,371.4665,485.0665,369.7595,485.0665,367.1995C485.0665,364.6395,486.7735,362.9325,489.33349999999996,362.9325L591.7335,362.9325C594.2935,362.9325,596.0005,364.6395,596.0005,367.1995C595.9995,369.7595,594.2935,371.4665,591.7335,371.4665ZL591.7335,371.4665Z" style="fill: rgb(0, 83, 97);"/></g><g id="shape-18b0f8c0-a003-11ec-908f-b1bd8f94c46c"/><g id="shape-18b0f8c1-a003-11ec-908f-b1bd8f94c46c"/><g id="shape-18b11fd0-a003-11ec-908f-b1bd8f94c46c"/><g id="shape-18b146e0-a003-11ec-908f-b1bd8f94c46c"/><g id="shape-18b146e1-a003-11ec-908f-b1bd8f94c46c"/><g id="shape-18b16df0-a003-11ec-908f-b1bd8f94c46c"/><g id="shape-18b19500-a003-11ec-908f-b1bd8f94c46c"/><g id="shape-18b1bc10-a003-11ec-908f-b1bd8f94c46c"/><g id="shape-18b1e320-a003-11ec-908f-b1bd8f94c46c"/><g id="shape-18b1e321-a003-11ec-908f-b1bd8f94c46c"/><g id="shape-18b20a30-a003-11ec-908f-b1bd8f94c46c"/><g id="shape-18b23140-a003-11ec-908f-b1bd8f94c46c"/><g id="shape-18b23141-a003-11ec-908f-b1bd8f94c46c"/><g id="shape-18b25850-a003-11ec-908f-b1bd8f94c46c"/><g id="shape-18b25851-a003-11ec-908f-b1bd8f94c46c"/></g></svg>