<svg xmlns:xlink="http://www.w3.org/1999/xlink" width="123" xmlns="http://www.w3.org/2000/svg" id="screenshot" version="1.1" viewBox="0 0 123 123" height="123" style="-webkit-print-color-adjust: exact;"><rect x="0" y="0" width="123" height="123" class="frame-background" style="fill: rgb(255, 163, 163); fill-opacity: 0;"/><g id="shape-cf76aff0-26b9-11ec-914c-034c21fbced2"><path d="m62.24191957962785,83.88519601934468C57.968727264585596,83.88519601934468,53.76487403261149,81.84312848650711,48.92092412180864,77.35193814402692C47.13601113668551,81.50059493432877,41.66628271887748,83.88519601934468,41.66628271887748,83.88519601934468C47.92092412180864,90.49936056681736,53.73592948716714,93.82948448455863,62.24191957962785,93.82948448455863C80.06811135078442,93.82948448455863,94.57110272211139,79.32709579738093,94.57110272211139,61.499698657925364C94.57110272211139,43.67410957091852,80.06811135078442,29.171118199591547,62.24191957962785,29.171118199591547C54.65593419104334,29.171118199591547,47.39961703218523,31.86391097914111,41.66628271887748,36.597392288582796C43.82087855300642,39.47641447029946,45.16848031108066,42.97981743080118,45.39026807806249,46.78998662335198C49.622918859346555,41.950432903614455,55.76125692105552,39.115406664804595,62.24191957962785,39.115406664804595C74.58489095948107,39.115406664804595,84.62681425689789,49.157329962221866,84.62681425689789,61.499698657925364C84.62681425689789,73.84327272192786,74.58489095948107,83.88519601934468,62.24191957962785,83.88519601934468Z" style="fill-rule: nonzero; stroke: none; fill: rgb(255, 255, 255); fill-opacity: 0.5;"/></g><g id="shape-67402de1-26b8-11ec-914c-034c21fbced2"><path d="m25.42241985705232,60.499999991315235C16.610142715833035,60.49999998660678,9.392354639138375,67.09894529745634,8.965974580271222,75.36308325778555C13.765412004263453,78.14233356915383,19.40037183523964,79.74521981881549,25.42241986811314,79.74521982203305C31.444467900987547,79.74521982525062,37.079427730120415,78.14233358161027,41.87886515091827,75.36308327537063C41.452485082550766,67.09894531458576,34.23469699827251,60.49999999602346,25.42241985705232,60.499999991315235ZZ" style="fill: rgb(255, 255, 255); fill-opacity: 0.75;"/></g><g id="shape-cf772520-26b9-11ec-914c-034c21fbced2"><path d="m34.6582714295746,30.839347925149468C42.45881237534741,23.90546678622377,52.90031526382154,19.88255008893293,64.27417053142835,20.537667759338092C84.6352518349895,21.710491114084107,101.24824041339025,38.01128930309187,102.77483936383805,58.34886592482644C104.57987839131147,82.39053932881552,85.52842974441091,102.53164091784402,61.86162588135221,102.53164091784402C47.99326091935109,102.53164091784402,36.994142459409204,96.0509024253704,29.28789997034346,86.04476032280354C25.020896192543205,88.14179247085804,15.700841509981274,85.04476032280354,15.700841509981274,85.04476032280354C17.53601474492507,87.68994105455067,17.874723236891896,91.34160431580676,15.873209176711498,94.44422231695353L12.71454154967023,99.3410310308841C15.156015038917758,102.52621676049921,17.886174235730778,105.44682414852514,20.86825540699556,108.07452703993931L25.9784143098168,105.23347395963538C31.76478482827224,102.01634597010116,38.83306453251589,106.41172147172574,38.50640972353722,113.02437195901757L38.219532068419994,118.83786326419659C40.05530798751306,119.59061576680551,41.93507984951293,120.26260859339436,43.85764228612061,120.84540416587106C45.780204722729195,121.42880242249657,47.716628894773294,121.91516853106805,49.66088796075974,122.30872128063038L52.652612078415586,117.31608578694431C56.055366785966726,111.63699304708325,64.37421610022966,111.90940628261524,67.3978824778037,117.79943847476852L70.06777325967641,123C74.00751954434918,122.47265136926899,77.8996537812186,121.56079025121699,81.69957734322907,120.26923811903771L81.79419875468602,114.44309044672127C81.90147653327995,107.82320774963637,89.24216947305604,103.89973393699756,94.80554685623065,107.4887180467158L99.70295825431094,110.64738567375707C102.88814398392606,108.20530950036027,105.80875137195198,105.47575298769652,108.43585157921643,102.49306913228202L105.5947984989125,97.3835129136105C102.378273193528,91.59714239515552,106.77364869515259,84.52886269091141,113.38629918244487,84.85491481574036L119.19979048762343,85.14179247085804C119.95254299023281,83.30661923591424,120.62393313267148,81.42684737391392,121.20733138929745,79.50428493730624C121.79072964592342,77.58172250069856,122.2770957544949,75.64529832865401,122.67064850405768,73.70103926266756L117.67741032622143,70.70931514501171C111.99831758636037,67.30656043746058,112.27133350604163,58.98771112319764,118.1607630140461,55.964044745623596L123.3619272234273,53.293551279601616C122.83457859269629,49.35440767907812,121.92271747464338,45.46227344220824,120.63116534246456,41.661747196048964L114.8044149859993,41.567728468741734C108.18453228891394,41.4604506901469,104.26105847627514,34.119757750371264,107.85004258599338,28.555777683046927L111.00871021303465,23.65896896911636C108.56723672378757,20.47378323950079,105.8370775269741,17.553175851475316,102.85499635570932,14.926075644210869L97.7454401370378,17.766526040365534C91.95846693443309,20.983654029898844,84.89078991433826,16.588278528274714,85.21684203916766,9.975628040982429L85.50371969428534,4.16213673580387C83.66854645934154,3.409384233194487,81.78817191319195,2.7373914066060934,79.86560947658381,2.1545958341293954C77.94304703997614,1.571197577503881,76.00662286793158,1.084831468932407,74.06236380194514,0.6912787193696204L71.07124236843902,5.683914213056141C67.66848766088742,11.363609637066475,59.34903566247522,11.091196401534944,56.32536928490117,5.201164209381659L53.65547850302892,0C49.71633490250542,0.5273486307310122,45.82359798148627,1.4386070646341977,42.023674419476265,2.7307618809627456L41.929053008018855,8.557512237428455C41.821775229424475,15.176792250363633,34.48108228964884,19.10026606300289,28.917704906473773,15.511884637434378L24.020896192543205,12.352614326243383C20.83571046292809,14.794690499639728,17.915103074902163,17.524849696453202,15.28740018348799,20.506930867718438L18.128453263791926,25.616487086389498C19.008974806075912,27.200341031030803,19.309714196629557,28.876405650531524,19.15964584342737,30.472313278160982C21.425135561047682,29.510429375707645,23.915426466397093,28.977053903482556,26.52806225407585,28.977053903482556C29.440834748159432,28.977053903482556,32.19088252190295,29.658086992312292,34.6582714295746,30.839347925149468Z" style="fill-rule: nonzero; stroke: none; fill: rgb(255, 255, 255); fill-opacity: 1;"/></g><g id="shape-cf774c30-26b9-11ec-914c-034c21fbced2"><path d="m37.01805666219457,47.32259506666833C37.01805666219457,41.249949577244934,32.095511102920455,36.32740401797105,26.022865613496606,36.32740401797105C19.950220124073212,36.32740401797105,15.027674564798872,41.249949577244934,15.027674564798872,47.32259506666833C15.027674564798872,53.39474948011866,19.950220124073212,58.31778611536606,26.022865613496606,58.31778611536606C32.095511102920455,58.31778611536606,37.01805666219457,53.39474948011866,37.01805666219457,47.32259506666833Z" style="fill-rule: nonzero; stroke: none; fill: rgb(255, 255, 255); fill-opacity: 0.75;"/></g></svg>