<?xml version="1.0" encoding="UTF-8"?>
<!-- Generator: Adobe Illustrator 24.0.0, SVG Export Plug-In . SVG Version: 6.00 Build 0)  -->
<svg version="1.1" id="Capa_1" xmlns="http://www.w3.org/2000/svg" xmlns:xlink="http://www.w3.org/1999/xlink" x="0px" y="0px" viewBox="0 0 1746 400" style="enable-background:new 0 0 1746 492;" xml:space="preserve">
<style type="text/css">
	.st0{fill:#fff;}
	.st1{fill-rule:evenodd;clip-rule:evenodd;fill:#fff;}
	.st2{fill:#fff;}
	.st3{fill-rule:evenodd;clip-rule:evenodd;fill:#fff;}
</style>
<path class="st0" d="M1396.79,105.3c3.86-10.67,14.56-19.37,23.96-19.37h162.24c-7.67,0-60,35.65-72.45,60.58  c-12.96,25.8-20.04,24.11-29.46,24.11h-90.71c-9.4,0-13.93-8.71-10.06-19.39L1396.79,105.3z"/>
<path class="st1" d="M852.59,310.94l90.38-223.56h-94.74L770.81,280.1c-7.26,16.92-16.07,29.55-26.54,37.9  c-10.1,7.92-27.79,11.86-53.06,11.86h-53.02c-22.76,0-36.39-4.21-40.89-12.69c-4.55-8.5-3.35-20.86,3.49-37.07l77.44-192.72h-95.29  l-90.39,223.56c-11.23,28.51-10.24,50.7,2.95,66.58c13.18,15.89,37.27,23.84,72.29,23.84h138.57c42.6,0,74.54-7.79,95.85-23.31  C824.6,362.21,841.35,339.81,852.59,310.94"/>
<path class="st1" d="M1171.39,207.52h48.18c2.91-7.57,4.61-14.33,5.17-20.29c0.53-5.97-0.56-11.13-3.24-15.42  c-2.74-4.33-7.43-7.6-14.1-9.74c-6.7-2.17-15.59-3.26-26.8-3.26H1127c-22.72,0-39.87,4.31-51.4,13.01  c-11.58,8.65-20.42,20.56-26.53,35.71H1171.39z M1163.3,278.99h-143.52l-49.24,122.36h-94.73l90.43-223.59  c6.07-15.18,13.33-28.43,21.66-39.8c8.29-11.37,18.3-20.77,30.05-28.14c11.72-7.41,25.4-13.01,41.11-16.78  c15.7-3.8,34.01-5.67,54.93-5.67h137c20.92,0,37.72,1.78,50.33,5.37c12.64,3.61,21.85,9.15,27.62,16.53  c5.77,7.39,8.3,16.71,7.6,27.86c-0.73,11.21-4.16,24.21-10.26,38.96l-90.98,225.25h-94.2l49.27-122.36H1163.3z"/>
<path class="st2" d="M97.94,159.96c6.04-13.72,22.06-24.85,35.79-24.85h68.01c13.73,0,19.97,11.14,13.92,24.85L120.04,377.3  c-6.04,13.73-22.05,24.87-35.82,24.87H16.21c-13.72,0-19.98-11.14-13.87-24.87L97.94,159.96z"/>
<path class="st3" d="M523.7,39.85c-6.46-10.58-15.43-19.42-26.88-26.58C485.38,6.11,471.5,2.52,455.21,2.52H159.56l-38.27,95.51  l-8.38,20.86h411.45c6.43-15.09,9.53-29.42,9.31-42.91C533.5,62.38,530.15,50.39,523.7,39.85"/>
<path class="st0" d="M421.14,388.64c-1.98,5.15-5.87,9.73-10.3,12.76l-18.29-0.07h-2.65h-95.84l-81.99-174.3l29.23-75.22  c3.7-9.46,13.48-17.27,21.8-17.27l253.31-0.03l-3.95,8.06c-2.57,5.39-6.71,12.13-12.35,20.26c-5.62,8.14-12.8,17.1-21.52,26.9  c-8.7,9.78-18.91,18.9-30.71,27.45c-11.75,8.55-25.36,16.02-40.81,22.39c-15.52,6.39-32.43,10.56-50.74,12.51l54.03,104.05  l10.09,19.33c0.77,0.94,1.31,2.11,1.66,3.46C422.83,381.6,422.57,384.97,421.14,388.64 M420.44,375.45l-10.09-19.33l11.75,22.79  C421.75,377.56,421.2,376.39,420.44,375.45"/>
<path class="st1" d="M1626.82,86.2c-7.8,0-17.03,2.32-27.76,6.96c-10.72,4.66-21.71,10.79-33.04,18.44  c-11.31,7.65-21.81,16.49-31.54,26.53c-9.71,10.06-16.71,20.47-21.03,31.29l-88.4,220.84c-0.88,3.84,0.99,7.44,5.58,10.77h70.62  c5.68-0.73,10.57-4.35,14.65-10.77l83.69-209.17c1.95-4.81,5.43-7.18,10.57-7.18h100.71L1746,86.2H1626.82z"/>
</svg>