<svg xmlns:xlink="http://www.w3.org/1999/xlink" width="258.76424810650906" xmlns="http://www.w3.org/2000/svg" id="screenshot" version="1.1" viewBox="4.547473508864641e-13 -0.34112599623722417 258.76424810650906 88.50000760377748" height="88.50000760377748" style="-webkit-print-color-adjust: exact;"><g id="shape-30dfac50-15bd-11ec-a596-777f6bbc3b09" style="opacity: 0.5;"><g id="shape-30dffa70-15bd-11ec-a596-777f6bbc3b09"><path d="M16.50178567451053,40.186914480656014C29.36370849565583,40.186914480656014,79.36159877293608,40.186914480656014,94.24944927932484,40.186914480656014C101.78740272458367,40.186914480656014,99.21206610103991,47.04005195049649,99.21206610103991,47.04005195049649L87.63262681909464,83.01902394504941C87.63262681909464,83.01902394504941,85.07378764115902,88.15887709734216,79.36159877293608,88.15887709125218C65.21274856583182,88.15887709125218,20.15659882161549,88.15887709125218,3.2681407767347537,88.15887709125218C-0.7314540692523224,88.15887709125218,0.06452086810145374,81.40358048210419,0.06452086810145374,81.40358048210419L10.723293679930975,47.35014872608008C10.723293679930975,47.35014872608008,12.262825802903308,40.18691446619505,16.50178567451053,40.186914480656014Z" style="fill: rgb(1, 84, 98); fill-opacity: 1;"/></g><g id="shape-30e02180-15bd-11ec-a596-777f6bbc3b09"><path d="M118.74332135405893,-0.3411228230370398C128.50064211492736,-0.3411228230370398,166.43007611838107,-0.3411228230370398,177.72430753702133,-0.3411228230370398C183.44275497825197,-0.3411228230370398,181.48905133280505,4.857809050635296,181.48905133280505,4.857809050635296L172.70464911891554,32.152201598226384C172.70464911891554,32.152201598226384,170.7634607770333,36.051400541345174,166.43007611838107,36.05140053672494C155.6964656164405,36.05140053672494,121.51593822427617,36.05140053672494,108.70400453505658,36.05140053672494C105.66982913465245,36.05140053672494,106.27367219057624,30.92669276426841,106.27367219057624,30.92669276426841L114.35963777196389,5.093054880388081C114.35963777196389,5.093054880388081,115.5275586928392,-0.3411228340073649,118.74332135405893,-0.3411228230370398Z" style="fill: rgb(0, 154, 144); fill-opacity: 1;"/></g><g id="shape-30e02181-15bd-11ec-a596-777f6bbc3b09"><path d="M192.79293395875152,22.817755611303255C202.9994850313924,22.817755611303255,242.67520286421995,22.817755611303255,254.4894244754314,22.817755611303255C260.471151149746,22.817755611303255,258.42749833492485,28.60747519789311,258.42749833492485,28.60747519789311L249.2386593046192,59.003503262256345C249.2386593046192,59.003503262256345,247.20809800212578,63.34579299436609,242.67520286421995,63.34579298922017C231.44741334424725,63.34579298922017,195.69320303714767,63.34579298922017,182.2914036351292,63.34579298922017C179.11753378432263,63.34579298922017,179.7491779765337,57.638732060803704,179.7491779765337,57.638732060803704L188.20742411814217,28.869453508299557C188.20742411814217,28.869453508299557,189.42911650889778,22.817755599086013,192.79293395875152,22.817755611303255Z" style="fill: rgb(222, 160, 1); fill-opacity: 1;"/></g></g></svg>