<svg xmlns:xlink="http://www.w3.org/1999/xlink" width="551" xmlns="http://www.w3.org/2000/svg" id="screenshot" version="1.1" viewBox="0 0 551 552" height="552" style="-webkit-print-color-adjust: exact;"><g id="shape-78ad92a0-26b5-11ec-914c-034c21fbced2"><rect x="451" y="38" transform="matrix(0.9999999999999998,0,0,1.0000000000000002,1.1368683772161603e-13,-1.4210854715202004e-14)" width="70" height="70" style="fill: rgb(255, 255, 255); fill-opacity: 1;"/></g><g id="shape-78ade0c0-26b5-11ec-914c-034c21fbced2"><rect x="451" y="143" transform="matrix(0.9999999999999998,0,0,1.0000000000000002,1.1368683772161603e-13,-2.842170943040401e-14)" width="70" height="70" style="fill: rgb(255, 255, 255); fill-opacity: 1;"/></g><g id="shape-78ae2ee0-26b5-11ec-914c-034c21fbced2"><rect x="346" y="38" transform="matrix(1,0,0,1.0000000000000002,0,-1.4210854715202004e-14)" width="70" height="70" style="fill: rgb(255, 255, 255); fill-opacity: 1;"/></g><g id="shape-78ae55f0-26b5-11ec-914c-034c21fbced2"><rect x="346" y="143" transform="matrix(1,0,0,1.0000000000000002,0,-2.842170943040401e-14)" width="70" height="70" style="fill: rgb(255, 255, 255); fill-opacity: 1;"/></g><g id="shape-78af8e70-26b5-11ec-914c-034c21fbced2"><path d="M485.5,283.0000046076693L485.5,388.0000046076693L65.5,388.0000046076693L65.5,108.00000460766933L275.5,108.00000460766933L275.5,73.00000460766933L65.5,73.00000460766933C46.170033755923214,73.00000460766933,30.5,88.67003836359254,30.5,108.00000460766933L30.5,388.0000046076693C30.5,407.3299708517461,46.170033755923214,423.0000046076693,65.5,423.0000046076693L205.5,423.0000046076693L205.5,493.0000046076693L135.5,493.0000046076693L135.5,528.0000046076693L415.5,528.0000046076693L415.5,493.0000046076693L345.5,493.0000046076693L345.5,423.0000046076693L485.5,423.0000046076693C504.8299662440786,423.0000046076693,520.5,407.3299708517461,520.5,388.0000046076693L520.5,283.0000046076693ZM310.5,493.0000046076693L240.5,493.0000046076693L240.5,423.0000046076693L310.5,423.0000046076693Z" style="fill: rgb(255, 255, 255); fill-opacity: 1;"/></g></svg>