<?xml version="1.0" encoding="UTF-8"?>
<!-- Generator: Adobe Illustrator 24.0.0, SVG Export Plug-In . SVG Version: 6.00 Build 0)  -->
<svg version="1.1" id="Capa_1" xmlns="http://www.w3.org/2000/svg" xmlns:xlink="http://www.w3.org/1999/xlink" x="0px" y="0px" viewBox="0 0 1746 492" style="enable-background:new 0 0 1746 492;" xml:space="preserve">
<style type="text/css">
	.st0{fill:#fff;}
	.st1{fill-rule:evenodd;clip-rule:evenodd;fill:#fff;}
	.st2{fill:#fff;}
	.st3{fill-rule:evenodd;clip-rule:evenodd;fill:#fff;}
</style>
<path class="st0" d="M1396.79,105.3c3.86-10.67,14.56-19.37,23.96-19.37h162.24c-7.67,0-60,35.65-72.45,60.58  c-12.96,25.8-20.04,24.11-29.46,24.11h-90.71c-9.4,0-13.93-8.71-10.06-19.39L1396.79,105.3z"/>
<path class="st1" d="M852.59,310.94l90.38-223.56h-94.74L770.81,280.1c-7.26,16.92-16.07,29.55-26.54,37.9  c-10.1,7.92-27.79,11.86-53.06,11.86h-53.02c-22.76,0-36.39-4.21-40.89-12.69c-4.55-8.5-3.35-20.86,3.49-37.07l77.44-192.72h-95.29  l-90.39,223.56c-11.23,28.51-10.24,50.7,2.95,66.58c13.18,15.89,37.27,23.84,72.29,23.84h138.57c42.6,0,74.54-7.79,95.85-23.31  C824.6,362.21,841.35,339.81,852.59,310.94"/>
<path class="st1" d="M1171.39,207.52h48.18c2.91-7.57,4.61-14.33,5.17-20.29c0.53-5.97-0.56-11.13-3.24-15.42  c-2.74-4.33-7.43-7.6-14.1-9.74c-6.7-2.17-15.59-3.26-26.8-3.26H1127c-22.72,0-39.87,4.31-51.4,13.01  c-11.58,8.65-20.42,20.56-26.53,35.71H1171.39z M1163.3,278.99h-143.52l-49.24,122.36h-94.73l90.43-223.59  c6.07-15.18,13.33-28.43,21.66-39.8c8.29-11.37,18.3-20.77,30.05-28.14c11.72-7.41,25.4-13.01,41.11-16.78  c15.7-3.8,34.01-5.67,54.93-5.67h137c20.92,0,37.72,1.78,50.33,5.37c12.64,3.61,21.85,9.15,27.62,16.53  c5.77,7.39,8.3,16.71,7.6,27.86c-0.73,11.21-4.16,24.21-10.26,38.96l-90.98,225.25h-94.2l49.27-122.36H1163.3z"/>
<path class="st2" d="M97.94,159.96c6.04-13.72,22.06-24.85,35.79-24.85h68.01c13.73,0,19.97,11.14,13.92,24.85L120.04,377.3  c-6.04,13.73-22.05,24.87-35.82,24.87H16.21c-13.72,0-19.98-11.14-13.87-24.87L97.94,159.96z"/>
<path class="st3" d="M523.7,39.85c-6.46-10.58-15.43-19.42-26.88-26.58C485.38,6.11,471.5,2.52,455.21,2.52H159.56l-38.27,95.51  l-8.38,20.86h411.45c6.43-15.09,9.53-29.42,9.31-42.91C533.5,62.38,530.15,50.39,523.7,39.85"/>
<path class="st0" d="M421.14,388.64c-1.98,5.15-5.87,9.73-10.3,12.76l-18.29-0.07h-2.65h-95.84l-81.99-174.3l29.23-75.22  c3.7-9.46,13.48-17.27,21.8-17.27l253.31-0.03l-3.95,8.06c-2.57,5.39-6.71,12.13-12.35,20.26c-5.62,8.14-12.8,17.1-21.52,26.9  c-8.7,9.78-18.91,18.9-30.71,27.45c-11.75,8.55-25.36,16.02-40.81,22.39c-15.52,6.39-32.43,10.56-50.74,12.51l54.03,104.05  l10.09,19.33c0.77,0.94,1.31,2.11,1.66,3.46C422.83,381.6,422.57,384.97,421.14,388.64 M420.44,375.45l-10.09-19.33l11.75,22.79  C421.75,377.56,421.2,376.39,420.44,375.45"/>
<path class="st1" d="M1626.82,86.2c-7.8,0-17.03,2.32-27.76,6.96c-10.72,4.66-21.71,10.79-33.04,18.44  c-11.31,7.65-21.81,16.49-31.54,26.53c-9.71,10.06-16.71,20.47-21.03,31.29l-88.4,220.84c-0.88,3.84,0.99,7.44,5.58,10.77h70.62  c5.68-0.73,10.57-4.35,14.65-10.77l83.69-209.17c1.95-4.81,5.43-7.18,10.57-7.18h100.71L1746,86.2H1626.82z"/>
<g>
	<path class="st0" d="M33.88,421.8c2.07,1.22,3.71,2.85,4.93,4.89c1.22,2.04,1.83,4.26,1.83,6.64c0,2.14-0.5,4.15-1.5,6.02   c-1,1.87-2.36,3.42-4.09,4.64c-1.73,1.22-3.64,1.97-5.73,2.26l-1.31,0.15l11.53,21.54c0.19,0.34,0.29,0.68,0.29,1.02   c0,0.58-0.22,1.08-0.66,1.5c-0.44,0.41-0.97,0.62-1.61,0.62c-0.44,0-0.84-0.12-1.2-0.37c-0.37-0.24-0.62-0.54-0.77-0.88   l-12.56-23.07H11.73v22.19c0,0.58-0.22,1.08-0.66,1.5c-0.44,0.41-0.97,0.62-1.61,0.62c-0.63,0-1.16-0.21-1.57-0.62   c-0.41-0.41-0.62-0.91-0.62-1.5v-45.63c0-0.97,0.33-1.78,0.99-2.41c0.66-0.63,1.5-0.95,2.52-0.95h16.35   C29.56,419.98,31.81,420.59,33.88,421.8z M11.73,424.07v18.54h15.4c1.65,0,3.19-0.43,4.6-1.28c1.41-0.85,2.53-1.98,3.36-3.39   c0.83-1.41,1.24-2.94,1.24-4.6c0-1.65-0.43-3.19-1.28-4.6c-0.85-1.41-1.98-2.54-3.39-3.39c-1.41-0.85-2.92-1.28-4.53-1.28H11.73z"/>
	<path class="st0" d="M70.24,437.57c2.46,2.43,3.69,5.94,3.69,10.51v3.43c0,0.88-0.29,1.59-0.88,2.15s-1.34,0.84-2.26,0.84H50.27   c0.05,3.12,0.34,5.58,0.88,7.41c0.54,1.82,1.47,3.16,2.81,4.01c1.34,0.85,3.2,1.28,5.58,1.28h11.1c0.68,0,1.2,0.18,1.57,0.55   c0.37,0.37,0.55,0.84,0.55,1.42c0,0.54-0.18,0.99-0.55,1.35c-0.36,0.37-0.84,0.55-1.42,0.55H59.47c-3.5,0-6.24-0.63-8.21-1.9   c-1.97-1.26-3.36-3.14-4.16-5.62c-0.8-2.48-1.2-5.74-1.2-9.78v-5.69c0-2.92,0.61-5.45,1.83-7.59c1.22-2.14,2.88-3.77,5-4.89   c2.12-1.12,4.46-1.68,7.04-1.68C64.29,433.92,67.78,435.14,70.24,437.57z M52.9,440.49c-1.7,1.8-2.6,4.21-2.7,7.23v3.21h19.42   v-3.14c-0.05-3.26-0.9-5.74-2.56-7.45c-1.65-1.7-4.09-2.55-7.3-2.55C56.89,437.79,54.6,438.69,52.9,440.49z"/>
	<path class="st0" d="M107.54,434.8c0.61,0.58,0.91,1.31,0.91,2.19v33.87c0,3.89-0.41,7.06-1.24,9.49   c-0.83,2.43-2.24,4.26-4.23,5.47c-2,1.22-4.72,1.83-8.18,1.83h-11.1c-0.68,0-1.2-0.18-1.57-0.55c-0.36-0.37-0.55-0.84-0.55-1.42   c0-0.54,0.18-0.99,0.55-1.35c0.37-0.36,0.84-0.55,1.42-0.55h11.17c2.38,0,4.25-0.43,5.58-1.28c1.34-0.85,2.29-2.19,2.85-4.02   c0.56-1.82,0.86-4.29,0.91-7.41H92.25c-2.09,0-4.01-0.49-5.77-1.46c-1.75-0.97-3.16-2.38-4.23-4.23c-1.07-1.85-1.61-4.01-1.61-6.5   v-11.17c0-1.99,0.4-4.06,1.2-6.21c0.8-2.14,2.09-3.94,3.87-5.4c1.78-1.46,4-2.19,6.68-2.19h12.85   C106.17,433.92,106.93,434.21,107.54,434.8z M92.39,438.01c-2.09,0-3.86,0.93-5.29,2.77c-1.44,1.85-2.15,4.23-2.15,7.15v10.95   c0,2.39,0.72,4.33,2.15,5.84c1.44,1.51,3.15,2.26,5.15,2.26h11.9v-28.98H92.39z"/>
	<path class="st0" d="M119.33,420.93c0.39-0.39,0.9-0.58,1.53-0.58c0.63,0,1.16,0.2,1.57,0.58c0.41,0.39,0.62,0.88,0.62,1.46v1.39   c0,0.58-0.21,1.06-0.62,1.42c-0.41,0.37-0.94,0.55-1.57,0.55c-0.63,0-1.14-0.18-1.53-0.55c-0.39-0.36-0.58-0.84-0.58-1.42v-1.39   C118.75,421.8,118.94,421.32,119.33,420.93z M119.33,434.51c0.39-0.39,0.9-0.58,1.53-0.58c0.63,0,1.16,0.2,1.57,0.58   c0.41,0.39,0.62,0.88,0.62,1.46v33.14c0,0.58-0.21,1.06-0.62,1.42c-0.41,0.37-0.94,0.55-1.57,0.55c-0.63,0-1.14-0.18-1.53-0.55   c-0.39-0.36-0.58-0.84-0.58-1.42v-33.14C118.75,435.38,118.94,434.9,119.33,434.51z"/>
	<path class="st0" d="M156.23,434.51c0.41,0.39,0.62,0.85,0.62,1.39c0,0.58-0.2,1.06-0.58,1.42c-0.39,0.37-0.88,0.55-1.46,0.55   h-11.17c-2.53,0-4.56,0.5-6.1,1.5c-1.53,1-2.3,2.54-2.3,4.64c0,1.95,0.67,3.33,2.01,4.16c1.34,0.83,3.64,1.46,6.9,1.9l2.63,0.37   c3.7,0.54,6.53,1.59,8.5,3.18c1.97,1.58,2.96,3.86,2.96,6.83c0,3.85-1.2,6.58-3.61,8.21c-2.41,1.63-5.83,2.45-10.26,2.45h-10.22   c-0.58,0-1.07-0.18-1.46-0.55c-0.39-0.36-0.58-0.81-0.58-1.35c0-0.58,0.19-1.06,0.58-1.42c0.39-0.37,0.88-0.55,1.46-0.55h10.22   c3.07,0,5.43-0.52,7.08-1.57c1.65-1.05,2.48-2.76,2.48-5.15c0-1.7-0.67-3.09-2.01-4.16c-1.34-1.07-3.25-1.75-5.73-2.04l-3.21-0.29   c-3.89-0.44-6.86-1.41-8.91-2.92c-2.04-1.51-3.07-3.84-3.07-7.01c0-3.41,1.18-5.95,3.54-7.63c2.36-1.68,5.39-2.52,9.09-2.52h11.02   C155.29,433.92,155.82,434.12,156.23,434.51z"/>
	<path class="st0" d="M169.66,426.29c0.41-0.41,0.94-0.62,1.57-0.62c0.63,0,1.14,0.2,1.53,0.58c0.39,0.39,0.58,0.88,0.58,1.46v6.21   h9.42c0.68,0,1.23,0.2,1.64,0.58c0.41,0.39,0.62,0.88,0.62,1.46s-0.2,1.06-0.58,1.42c-0.39,0.37-0.9,0.55-1.53,0.55h-9.56v21.68   c0,2.82,0.51,4.88,1.53,6.17c1.02,1.29,2.8,1.93,5.33,1.93h2.7c0.63,0,1.14,0.21,1.53,0.62c0.39,0.41,0.58,0.91,0.58,1.5   s-0.2,1.06-0.58,1.42c-0.39,0.37-0.9,0.55-1.53,0.55h-2.7c-3.89,0-6.73-1.02-8.5-3.07c-1.78-2.04-2.66-5.08-2.66-9.13v-21.68h-3.87   c-0.63,0-1.14-0.18-1.53-0.55c-0.39-0.37-0.58-0.84-0.58-1.42c0-0.63,0.19-1.13,0.58-1.5c0.39-0.37,0.9-0.55,1.53-0.55h3.87v-6.21   C169.04,427.18,169.25,426.71,169.66,426.29z"/>
	<path class="st0" d="M210.87,433.74c0.39,0.37,0.58,0.82,0.58,1.35c0,0.54-0.2,1-0.58,1.39c-0.39,0.39-0.88,0.58-1.46,0.58H207   c-3.36,0-5.88,0.92-7.56,2.77c-1.68,1.85-2.52,4.43-2.52,7.74v21.54c0,0.58-0.21,1.06-0.62,1.42c-0.41,0.37-0.94,0.55-1.57,0.55   c-0.63,0-1.14-0.18-1.53-0.55c-0.39-0.36-0.58-0.84-0.58-1.42v-33.87c0-0.58,0.19-1.07,0.58-1.46c0.39-0.39,0.9-0.58,1.53-0.58   c0.68,0,1.17,0.27,1.46,0.8l0.07,4.09c2.09-3.26,5.67-4.89,10.73-4.89h2.26C209.94,433.19,210.48,433.38,210.87,433.74z"/>
	<path class="st0" d="M220.91,469.77c-1.87-1.07-3.36-2.57-4.45-4.49c-1.1-1.92-1.64-4.12-1.64-6.61v-11.24   c0-2.53,0.54-4.82,1.61-6.86c1.07-2.04,2.54-3.65,4.42-4.82c1.87-1.17,3.98-1.75,6.31-1.75h4.45c2.34,0,4.43,0.58,6.28,1.75   c1.85,1.17,3.31,2.77,4.38,4.82c1.07,2.04,1.61,4.33,1.61,6.86v11.24c0,2.48-0.54,4.68-1.61,6.61c-1.07,1.92-2.54,3.42-4.42,4.49   c-1.87,1.07-3.95,1.61-6.24,1.61h-4.45C224.86,471.37,222.78,470.84,220.91,469.77z M237.37,465.17c1.51-1.65,2.26-3.75,2.26-6.28   v-11.83c0-2.58-0.76-4.78-2.26-6.61c-1.51-1.83-3.43-2.74-5.77-2.74h-4.45c-2.34,0-4.26,0.91-5.77,2.74   c-1.51,1.82-2.26,4.03-2.26,6.61v11.83c0,2.53,0.74,4.62,2.23,6.28c1.48,1.66,3.42,2.48,5.8,2.48h4.45   C233.94,467.65,235.86,466.82,237.37,465.17z"/>
	<path class="st0" d="M279.85,420.6c0.44-0.41,0.97-0.62,1.61-0.62c0.54,0,1.02,0.21,1.46,0.62c0.44,0.41,0.66,0.89,0.66,1.42v34.02   c0,2.24,0.43,4.2,1.28,5.88c0.85,1.68,1.98,2.96,3.39,3.83c1.41,0.88,2.92,1.31,4.53,1.31h8.91c2.63,0,4.71-1.01,6.24-3.03   c1.53-2.02,2.3-4.68,2.3-7.99v-33.87c0-0.63,0.22-1.16,0.66-1.57c0.44-0.41,0.95-0.62,1.53-0.62s1.11,0.21,1.57,0.62   c0.46,0.41,0.69,0.89,0.69,1.42v34.02c0,4.58-1.17,8.25-3.5,11.02c-2.34,2.77-5.52,4.16-9.56,4.16h-8.83   c-2.48,0-4.75-0.6-6.79-1.79c-2.04-1.19-3.69-2.93-4.93-5.22c-1.24-2.29-1.86-5.01-1.86-8.18v-34.02   C279.2,421.49,279.42,421.01,279.85,420.6z M302.12,404.94c0.78,0,1.39,0.39,1.83,1.17c0.15,0.29,0.22,0.56,0.22,0.8   c0,0.78-0.51,1.41-1.53,1.9l-10.66,4.96c-0.49,0.19-0.85,0.29-1.09,0.29c-0.78,0-1.36-0.34-1.75-1.02c-0.1-0.19-0.15-0.46-0.15-0.8   c0-0.78,0.39-1.39,1.17-1.83l11.1-5.26C301.53,405.01,301.83,404.94,302.12,404.94z"/>
	<path class="st0" d="M347.63,435.42c1.78,1,3.19,2.42,4.23,4.27c1.05,1.85,1.57,3.99,1.57,6.42v22.92c0,0.54-0.22,1.01-0.66,1.42   c-0.44,0.41-0.95,0.62-1.53,0.62s-1.08-0.21-1.5-0.62c-0.41-0.41-0.62-0.89-0.62-1.42v-22.92c0-2.48-0.68-4.49-2.04-6.02   c-1.36-1.53-3.11-2.3-5.26-2.3h-11.97v31.1c0,0.63-0.21,1.16-0.62,1.57c-0.41,0.41-0.94,0.62-1.57,0.62c-0.58,0-1.08-0.21-1.5-0.62   c-0.41-0.41-0.62-0.89-0.62-1.42v-31.9c0-0.88,0.3-1.63,0.91-2.26c0.61-0.63,1.4-0.95,2.37-0.95h12.99   C343.92,433.92,345.86,434.42,347.63,435.42z"/>
	<path class="st0" d="M363.8,420.93c0.39-0.39,0.9-0.58,1.53-0.58c0.63,0,1.16,0.2,1.57,0.58c0.41,0.39,0.62,0.88,0.62,1.46v1.39   c0,0.58-0.21,1.06-0.62,1.42c-0.41,0.37-0.94,0.55-1.57,0.55c-0.63,0-1.14-0.18-1.53-0.55c-0.39-0.36-0.58-0.84-0.58-1.42v-1.39   C363.22,421.8,363.41,421.32,363.8,420.93z M363.8,434.51c0.39-0.39,0.9-0.58,1.53-0.58c0.63,0,1.16,0.2,1.57,0.58   c0.41,0.39,0.62,0.88,0.62,1.46v33.14c0,0.58-0.21,1.06-0.62,1.42c-0.41,0.37-0.94,0.55-1.57,0.55c-0.63,0-1.14-0.18-1.53-0.55   c-0.39-0.36-0.58-0.84-0.58-1.42v-33.14C363.22,435.38,363.41,434.9,363.8,434.51z"/>
	<path class="st0" d="M400.12,434.47c0.36,0.37,0.55,0.82,0.55,1.35c0,0.58-0.17,1.06-0.51,1.42c-0.34,0.37-0.83,0.55-1.46,0.55   h-8.25c-3.5,0-6.06,0.91-7.66,2.74c-1.61,1.83-2.41,4.59-2.41,8.29v6.93c0,3.89,0.84,6.78,2.52,8.65c1.68,1.87,4.2,2.81,7.56,2.81   h8.25c0.58,0,1.06,0.18,1.42,0.55c0.36,0.37,0.55,0.84,0.55,1.42c0,0.54-0.17,0.99-0.51,1.35c-0.34,0.37-0.83,0.55-1.46,0.55h-8.25   c-9.59,0-14.38-5.13-14.38-15.4v-6.86c0-4.87,1.2-8.57,3.61-11.1c2.41-2.53,6-3.8,10.77-3.8h8.25   C399.28,433.92,399.75,434.11,400.12,434.47z"/>
	<path class="st0" d="M413.48,469.77c-1.87-1.07-3.36-2.57-4.45-4.49c-1.1-1.92-1.64-4.12-1.64-6.61v-11.24   c0-2.53,0.54-4.82,1.61-6.86c1.07-2.04,2.54-3.65,4.42-4.82c1.87-1.17,3.98-1.75,6.31-1.75h4.45c2.34,0,4.43,0.58,6.28,1.75   c1.85,1.17,3.31,2.77,4.38,4.82c1.07,2.04,1.61,4.33,1.61,6.86v11.24c0,2.48-0.54,4.68-1.61,6.61c-1.07,1.92-2.54,3.42-4.42,4.49   c-1.87,1.07-3.95,1.61-6.24,1.61h-4.45C417.43,471.37,415.35,470.84,413.48,469.77z M429.94,465.17c1.51-1.65,2.26-3.75,2.26-6.28   v-11.83c0-2.58-0.76-4.78-2.26-6.61c-1.51-1.83-3.43-2.74-5.77-2.74h-4.45c-2.34,0-4.26,0.91-5.77,2.74   c-1.51,1.82-2.26,4.03-2.26,6.61v11.83c0,2.53,0.74,4.62,2.23,6.28c1.48,1.66,3.42,2.48,5.8,2.48h4.45   C426.51,467.65,428.43,466.82,429.94,465.17z"/>
	<path class="st0" d="M471.44,434.91c0.66-0.66,1.45-0.99,2.37-0.99h12.63c2.73,0,4.98,0.73,6.75,2.19c1.78,1.46,3.07,3.26,3.87,5.4   c0.8,2.14,1.2,4.21,1.2,6.21v11.17c0,2.48-0.54,4.65-1.61,6.5c-1.07,1.85-2.49,3.26-4.27,4.23c-1.78,0.97-3.71,1.46-5.8,1.46   h-11.83v11.83c0,0.58-0.2,1.07-0.58,1.46c-0.39,0.39-0.9,0.58-1.53,0.58c-0.58,0-1.1-0.2-1.53-0.58c-0.44-0.39-0.66-0.88-0.66-1.46   v-45.77C470.45,436.31,470.78,435.57,471.44,434.91z M486.58,467.21c2,0,3.72-0.78,5.18-2.34c1.46-1.56,2.19-3.55,2.19-5.99v-10.95   c0-2.92-0.72-5.3-2.15-7.15c-1.44-1.85-3.22-2.77-5.37-2.77h-11.68v29.2H486.58z"/>
	<path class="st0" d="M507.39,434.47c0.39-0.37,0.9-0.55,1.53-0.55h13.07c2.92,0,5.34,1.02,7.26,3.07c1.92,2.04,2.88,4.58,2.88,7.59   v23.43c0,0.88-0.3,1.61-0.91,2.19c-0.61,0.58-1.35,0.88-2.23,0.88h-13.58c-1.95,0-3.74-0.47-5.37-1.42   c-1.63-0.95-2.92-2.23-3.87-3.83c-0.95-1.61-1.42-3.36-1.42-5.26c0-1.9,0.47-3.66,1.42-5.29c0.95-1.63,2.24-2.92,3.87-3.87   c1.63-0.95,3.42-1.42,5.37-1.42h12.41v-5.18c0-2-0.56-3.66-1.68-5c-1.12-1.34-2.58-2.01-4.38-2.01H509c-0.68,0-1.22-0.18-1.61-0.55   c-0.39-0.36-0.58-0.84-0.58-1.42C506.81,435.29,507,434.84,507.39,434.47z M527.83,454h-12.41c-1.7,0-3.2,0.65-4.49,1.93   c-1.29,1.29-1.93,2.84-1.93,4.64c0,1.75,0.64,3.27,1.93,4.56c1.29,1.29,2.79,1.93,4.49,1.93h12.41V454z"/>
	<path class="st0" d="M559.51,433.74c0.39,0.37,0.58,0.82,0.58,1.35c0,0.54-0.2,1-0.58,1.39c-0.39,0.39-0.88,0.58-1.46,0.58h-2.41   c-3.36,0-5.88,0.92-7.56,2.77c-1.68,1.85-2.52,4.43-2.52,7.74v21.54c0,0.58-0.21,1.06-0.62,1.42c-0.41,0.37-0.94,0.55-1.57,0.55   c-0.63,0-1.14-0.18-1.53-0.55c-0.39-0.36-0.58-0.84-0.58-1.42v-33.87c0-0.58,0.19-1.07,0.58-1.46c0.39-0.39,0.9-0.58,1.53-0.58   c0.68,0,1.17,0.27,1.46,0.8l0.07,4.09c2.09-3.26,5.67-4.89,10.73-4.89h2.26C558.58,433.19,559.12,433.38,559.51,433.74z"/>
	<path class="st0" d="M567.25,434.47c0.39-0.37,0.9-0.55,1.53-0.55h13.07c2.92,0,5.34,1.02,7.26,3.07c1.92,2.04,2.88,4.58,2.88,7.59   v23.43c0,0.88-0.3,1.61-0.91,2.19c-0.61,0.58-1.35,0.88-2.23,0.88h-13.58c-1.95,0-3.74-0.47-5.37-1.42   c-1.63-0.95-2.92-2.23-3.87-3.83c-0.95-1.61-1.42-3.36-1.42-5.26c0-1.9,0.47-3.66,1.42-5.29c0.95-1.63,2.24-2.92,3.87-3.87   c1.63-0.95,3.42-1.42,5.37-1.42h12.41v-5.18c0-2-0.56-3.66-1.68-5c-1.12-1.34-2.58-2.01-4.38-2.01h-12.77   c-0.68,0-1.22-0.18-1.61-0.55c-0.39-0.36-0.58-0.84-0.58-1.42C566.66,435.29,566.86,434.84,567.25,434.47z M587.69,454h-12.41   c-1.7,0-3.2,0.65-4.49,1.93c-1.29,1.29-1.93,2.84-1.93,4.64c0,1.75,0.64,3.27,1.93,4.56c1.29,1.29,2.79,1.93,4.49,1.93h12.41V454z"/>
	<path class="st0" d="M627.22,420.56c0.41-0.39,0.94-0.58,1.57-0.58c0.63,0,1.16,0.21,1.57,0.62c0.41,0.41,0.62,0.94,0.62,1.57   v46.72c0,0.63-0.21,1.16-0.62,1.57c-0.41,0.41-0.94,0.62-1.57,0.62c-0.63,0-1.16-0.19-1.57-0.58c-0.41-0.39-0.62-0.88-0.62-1.46   v-47.01C626.59,421.44,626.8,420.95,627.22,420.56z"/>
	<path class="st0" d="M640.68,434.47c0.39-0.37,0.9-0.55,1.53-0.55h13.07c2.92,0,5.34,1.02,7.26,3.07c1.92,2.04,2.88,4.58,2.88,7.59   v23.43c0,0.88-0.3,1.61-0.91,2.19c-0.61,0.58-1.35,0.88-2.23,0.88h-13.58c-1.95,0-3.74-0.47-5.37-1.42   c-1.63-0.95-2.92-2.23-3.87-3.83c-0.95-1.61-1.42-3.36-1.42-5.26c0-1.9,0.47-3.66,1.42-5.29c0.95-1.63,2.24-2.92,3.87-3.87   c1.63-0.95,3.42-1.42,5.37-1.42h12.41v-5.18c0-2-0.56-3.66-1.68-5c-1.12-1.34-2.58-2.01-4.38-2.01h-12.77   c-0.68,0-1.22-0.18-1.61-0.55c-0.39-0.36-0.58-0.84-0.58-1.42C640.1,435.29,640.29,434.84,640.68,434.47z M661.12,454h-12.41   c-1.7,0-3.2,0.65-4.49,1.93c-1.29,1.29-1.93,2.84-1.93,4.64c0,1.75,0.64,3.27,1.93,4.56c1.29,1.29,2.79,1.93,4.49,1.93h12.41V454z"/>
	<path class="st0" d="M720.47,421.15c1.07,0.78,1.8,1.82,2.19,3.14l13.36,44.31c0.19,0.58,0.1,1.12-0.29,1.61   c-0.39,0.49-0.97,0.75-1.75,0.8c-0.49,0.05-0.95-0.07-1.39-0.37s-0.73-0.68-0.88-1.17l-4.23-13.5h-21.61l-4.23,13.5   c-0.15,0.44-0.41,0.82-0.8,1.13c-0.39,0.32-0.83,0.47-1.31,0.47c-0.78,0-1.38-0.27-1.79-0.8c-0.41-0.54-0.55-1.17-0.4-1.9   l13.36-44.09c0.39-1.26,1.13-2.3,2.23-3.1c1.1-0.8,2.37-1.2,3.83-1.2C718.16,419.98,719.4,420.37,720.47,421.15z M715.25,426.77   c-0.46,0.34-0.77,0.78-0.91,1.31l-7.23,23.72h19.13l-7.08-23.72c-0.2-0.54-0.52-0.97-0.99-1.31c-0.46-0.34-0.94-0.51-1.42-0.51   C716.21,426.26,715.71,426.43,715.25,426.77z"/>
	<path class="st0" d="M768.47,470.13c-0.66,0.63-1.45,0.95-2.37,0.95h-12.7c-2.68,0-4.9-0.73-6.68-2.19   c-1.78-1.46-3.07-3.25-3.87-5.37s-1.2-4.2-1.2-6.24v-11.17c0-2.43,0.54-4.57,1.61-6.42c1.07-1.85,2.49-3.27,4.27-4.27   c1.78-1,3.69-1.5,5.73-1.5h11.9v-11.9c0-0.58,0.19-1.07,0.58-1.46c0.39-0.39,0.9-0.58,1.53-0.58c0.58,0,1.1,0.19,1.53,0.58   s0.66,0.88,0.66,1.46v45.84C769.45,468.74,769.12,469.5,768.47,470.13z M753.25,437.79c-1.95,0-3.65,0.78-5.11,2.34   c-1.46,1.56-2.19,3.55-2.19,5.99v10.95c0,2.92,0.72,5.3,2.15,7.15c1.44,1.85,3.2,2.77,5.29,2.77h11.75v-29.2H753.25z"/>
	<path class="st0" d="M783.4,468.89c0,0.63-0.21,1.16-0.62,1.57c-0.41,0.41-0.94,0.62-1.57,0.62c-0.63,0-1.13-0.21-1.5-0.62   c-0.36-0.41-0.55-0.89-0.55-1.42v-31.9c0-0.88,0.3-1.63,0.91-2.26c0.61-0.63,1.4-0.95,2.37-0.95h33.07c2.04,0,3.95,0.5,5.73,1.5   c1.78,1,3.19,2.42,4.23,4.27c1.05,1.85,1.57,3.99,1.57,6.42v22.92c0,0.54-0.21,1.01-0.62,1.42c-0.41,0.41-0.91,0.62-1.5,0.62   c-0.63,0-1.14-0.21-1.53-0.62c-0.39-0.41-0.58-0.89-0.58-1.42v-22.92c0-2.43-0.73-4.43-2.19-5.99c-1.46-1.56-3.16-2.34-5.11-2.34   h-10.29v31.1c0,0.63-0.2,1.16-0.58,1.57c-0.39,0.41-0.9,0.62-1.53,0.62c-0.63,0-1.14-0.21-1.53-0.62   c-0.39-0.41-0.58-0.89-0.58-1.42v-31.24H783.4V468.89z"/>
	<path class="st0" d="M837.42,420.93c0.39-0.39,0.9-0.58,1.53-0.58c0.63,0,1.16,0.2,1.57,0.58c0.41,0.39,0.62,0.88,0.62,1.46v1.39   c0,0.58-0.21,1.06-0.62,1.42c-0.41,0.37-0.94,0.55-1.57,0.55c-0.63,0-1.14-0.18-1.53-0.55c-0.39-0.36-0.58-0.84-0.58-1.42v-1.39   C836.83,421.8,837.03,421.32,837.42,420.93z M837.42,434.51c0.39-0.39,0.9-0.58,1.53-0.58c0.63,0,1.16,0.2,1.57,0.58   c0.41,0.39,0.62,0.88,0.62,1.46v33.14c0,0.58-0.21,1.06-0.62,1.42c-0.41,0.37-0.94,0.55-1.57,0.55c-0.63,0-1.14-0.18-1.53-0.55   c-0.39-0.36-0.58-0.84-0.58-1.42v-33.14C836.83,435.38,837.03,434.9,837.42,434.51z"/>
	<path class="st0" d="M873,435.42c1.78,1,3.19,2.42,4.23,4.27s1.57,3.99,1.57,6.42v22.92c0,0.54-0.22,1.01-0.66,1.42   c-0.44,0.41-0.95,0.62-1.53,0.62s-1.08-0.21-1.5-0.62c-0.41-0.41-0.62-0.89-0.62-1.42v-22.92c0-2.48-0.68-4.49-2.04-6.02   c-1.36-1.53-3.12-2.3-5.26-2.3h-11.97v31.1c0,0.63-0.21,1.16-0.62,1.57c-0.41,0.41-0.94,0.62-1.57,0.62c-0.58,0-1.08-0.21-1.5-0.62   c-0.41-0.41-0.62-0.89-0.62-1.42v-31.9c0-0.88,0.3-1.63,0.91-2.26c0.61-0.63,1.4-0.95,2.37-0.95h12.99   C869.29,433.92,871.22,434.42,873,435.42z"/>
	<path class="st0" d="M889.17,420.93c0.39-0.39,0.9-0.58,1.53-0.58c0.63,0,1.16,0.2,1.57,0.58c0.41,0.39,0.62,0.88,0.62,1.46v1.39   c0,0.58-0.21,1.06-0.62,1.42c-0.41,0.37-0.94,0.55-1.57,0.55c-0.63,0-1.14-0.18-1.53-0.55c-0.39-0.36-0.58-0.84-0.58-1.42v-1.39   C888.59,421.8,888.78,421.32,889.17,420.93z M889.17,434.51c0.39-0.39,0.9-0.58,1.53-0.58c0.63,0,1.16,0.2,1.57,0.58   c0.41,0.39,0.62,0.88,0.62,1.46v33.14c0,0.58-0.21,1.06-0.62,1.42c-0.41,0.37-0.94,0.55-1.57,0.55c-0.63,0-1.14-0.18-1.53-0.55   c-0.39-0.36-0.58-0.84-0.58-1.42v-33.14C888.59,435.38,888.78,434.9,889.17,434.51z"/>
	<path class="st0" d="M926.07,434.51c0.41,0.39,0.62,0.85,0.62,1.39c0,0.58-0.2,1.06-0.58,1.42c-0.39,0.37-0.88,0.55-1.46,0.55   h-11.17c-2.53,0-4.56,0.5-6.1,1.5c-1.53,1-2.3,2.54-2.3,4.64c0,1.95,0.67,3.33,2.01,4.16c1.34,0.83,3.64,1.46,6.9,1.9l2.63,0.37   c3.7,0.54,6.53,1.59,8.5,3.18c1.97,1.58,2.96,3.86,2.96,6.83c0,3.85-1.2,6.58-3.61,8.21c-2.41,1.63-5.83,2.45-10.26,2.45h-10.22   c-0.58,0-1.07-0.18-1.46-0.55c-0.39-0.36-0.58-0.81-0.58-1.35c0-0.58,0.19-1.06,0.58-1.42c0.39-0.37,0.88-0.55,1.46-0.55h10.22   c3.07,0,5.43-0.52,7.08-1.57c1.65-1.05,2.48-2.76,2.48-5.15c0-1.7-0.67-3.09-2.01-4.16c-1.34-1.07-3.25-1.75-5.73-2.04l-3.21-0.29   c-3.89-0.44-6.86-1.41-8.91-2.92c-2.04-1.51-3.07-3.84-3.07-7.01c0-3.41,1.18-5.95,3.54-7.63c2.36-1.68,5.39-2.52,9.09-2.52h11.02   C925.13,433.92,925.66,434.12,926.07,434.51z"/>
	<path class="st0" d="M939.5,426.29c0.41-0.41,0.94-0.62,1.57-0.62c0.63,0,1.14,0.2,1.53,0.58c0.39,0.39,0.58,0.88,0.58,1.46v6.21   h9.42c0.68,0,1.23,0.2,1.64,0.58c0.41,0.39,0.62,0.88,0.62,1.46s-0.19,1.06-0.58,1.42s-0.9,0.55-1.53,0.55h-9.56v21.68   c0,2.82,0.51,4.88,1.53,6.17c1.02,1.29,2.8,1.93,5.33,1.93h2.7c0.63,0,1.14,0.21,1.53,0.62c0.39,0.41,0.58,0.91,0.58,1.5   s-0.19,1.06-0.58,1.42s-0.9,0.55-1.53,0.55h-2.7c-3.89,0-6.73-1.02-8.5-3.07c-1.78-2.04-2.66-5.08-2.66-9.13v-21.68h-3.87   c-0.63,0-1.14-0.18-1.53-0.55c-0.39-0.37-0.58-0.84-0.58-1.42c0-0.63,0.19-1.13,0.58-1.5c0.39-0.37,0.9-0.55,1.53-0.55h3.87v-6.21   C938.88,427.18,939.09,426.71,939.5,426.29z"/>
	<path class="st0" d="M980.71,433.74c0.39,0.37,0.58,0.82,0.58,1.35c0,0.54-0.19,1-0.58,1.39s-0.88,0.58-1.46,0.58h-2.41   c-3.36,0-5.88,0.92-7.56,2.77c-1.68,1.85-2.52,4.43-2.52,7.74v21.54c0,0.58-0.21,1.06-0.62,1.42c-0.41,0.37-0.94,0.55-1.57,0.55   c-0.63,0-1.14-0.18-1.53-0.55c-0.39-0.36-0.58-0.84-0.58-1.42v-33.87c0-0.58,0.19-1.07,0.58-1.46s0.9-0.58,1.53-0.58   c0.68,0,1.17,0.27,1.46,0.8l0.07,4.09c2.09-3.26,5.67-4.89,10.73-4.89h2.26C979.79,433.19,980.32,433.38,980.71,433.74z"/>
	<path class="st0" d="M988.45,434.47c0.39-0.37,0.9-0.55,1.53-0.55h13.07c2.92,0,5.34,1.02,7.26,3.07c1.92,2.04,2.88,4.58,2.88,7.59   v23.43c0,0.88-0.3,1.61-0.91,2.19c-0.61,0.58-1.35,0.88-2.23,0.88h-13.58c-1.95,0-3.74-0.47-5.37-1.42   c-1.63-0.95-2.92-2.23-3.87-3.83c-0.95-1.61-1.42-3.36-1.42-5.26c0-1.9,0.47-3.66,1.42-5.29c0.95-1.63,2.24-2.92,3.87-3.87   c1.63-0.95,3.42-1.42,5.37-1.42h12.41v-5.18c0-2-0.56-3.66-1.68-5c-1.12-1.34-2.58-2.01-4.38-2.01h-12.78   c-0.68,0-1.22-0.18-1.61-0.55c-0.39-0.36-0.58-0.84-0.58-1.42C987.86,435.29,988.06,434.84,988.45,434.47z M1008.89,454h-12.41   c-1.7,0-3.2,0.65-4.49,1.93c-1.29,1.29-1.93,2.84-1.93,4.64c0,1.75,0.64,3.27,1.93,4.56c1.29,1.29,2.79,1.93,4.49,1.93h12.41V454z"/>
	<path class="st0" d="M1045.13,434.47c0.37,0.37,0.55,0.82,0.55,1.35c0,0.58-0.17,1.06-0.51,1.42c-0.34,0.37-0.83,0.55-1.46,0.55   h-8.25c-3.5,0-6.06,0.91-7.67,2.74c-1.61,1.83-2.41,4.59-2.41,8.29v6.93c0,3.89,0.84,6.78,2.52,8.65c1.68,1.87,4.2,2.81,7.56,2.81   h8.25c0.58,0,1.06,0.18,1.42,0.55c0.37,0.37,0.55,0.84,0.55,1.42c0,0.54-0.17,0.99-0.51,1.35c-0.34,0.37-0.83,0.55-1.46,0.55h-8.25   c-9.59,0-14.38-5.13-14.38-15.4v-6.86c0-4.87,1.2-8.57,3.61-11.1c2.41-2.53,6-3.8,10.77-3.8h8.25   C1044.29,433.92,1044.77,434.11,1045.13,434.47z"/>
	<path class="st0" d="M1054.8,420.93c0.39-0.39,0.9-0.58,1.53-0.58c0.63,0,1.16,0.2,1.57,0.58c0.41,0.39,0.62,0.88,0.62,1.46v1.39   c0,0.58-0.21,1.06-0.62,1.42c-0.41,0.37-0.94,0.55-1.57,0.55c-0.63,0-1.14-0.18-1.53-0.55c-0.39-0.36-0.58-0.84-0.58-1.42v-1.39   C1054.22,421.8,1054.41,421.32,1054.8,420.93z M1054.8,434.51c0.39-0.39,0.9-0.58,1.53-0.58c0.63,0,1.16,0.2,1.57,0.58   c0.41,0.39,0.62,0.88,0.62,1.46v33.14c0,0.58-0.21,1.06-0.62,1.42c-0.41,0.37-0.94,0.55-1.57,0.55c-0.63,0-1.14-0.18-1.53-0.55   c-0.39-0.36-0.58-0.84-0.58-1.42v-33.14C1054.22,435.38,1054.41,434.9,1054.8,434.51z"/>
	<path class="st0" d="M1073.16,469.77c-1.87-1.07-3.36-2.57-4.45-4.49c-1.1-1.92-1.64-4.12-1.64-6.61v-11.24   c0-2.53,0.53-4.82,1.61-6.86c1.07-2.04,2.54-3.65,4.42-4.82c1.87-1.17,3.98-1.75,6.31-1.75h4.45c2.34,0,4.43,0.58,6.28,1.75   s3.31,2.77,4.38,4.82s1.61,4.33,1.61,6.86v11.24c0,2.48-0.54,4.68-1.61,6.61c-1.07,1.92-2.54,3.42-4.42,4.49   c-1.87,1.07-3.96,1.61-6.24,1.61h-4.45C1077.12,471.37,1075.04,470.84,1073.16,469.77z M1089.62,465.17   c1.51-1.65,2.26-3.75,2.26-6.28v-11.83c0-2.58-0.75-4.78-2.26-6.61c-1.51-1.83-3.43-2.74-5.77-2.74h-4.45   c-2.34,0-4.26,0.91-5.77,2.74c-1.51,1.82-2.26,4.03-2.26,6.61v11.83c0,2.53,0.74,4.62,2.23,6.28c1.48,1.66,3.42,2.48,5.8,2.48h4.45   C1086.19,467.65,1088.12,466.82,1089.62,465.17z M1087.21,418.59c0.34,0,0.68,0.11,1.02,0.33c0.34,0.22,0.58,0.5,0.73,0.84   c0.15,0.29,0.22,0.58,0.22,0.88c0,0.73-0.51,1.36-1.53,1.9l-10.58,4.89c-0.49,0.2-0.88,0.29-1.17,0.29c-0.73,0-1.31-0.34-1.75-1.02   c-0.1-0.19-0.15-0.46-0.15-0.8c0-0.83,0.41-1.44,1.24-1.83l11.02-5.26C1086.56,418.67,1086.87,418.59,1087.21,418.59z"/>
	<path class="st0" d="M1126.74,435.42c1.78,1,3.19,2.42,4.23,4.27s1.57,3.99,1.57,6.42v22.92c0,0.54-0.22,1.01-0.66,1.42   c-0.44,0.41-0.95,0.62-1.53,0.62s-1.08-0.21-1.5-0.62c-0.41-0.41-0.62-0.89-0.62-1.42v-22.92c0-2.48-0.68-4.49-2.04-6.02   c-1.36-1.53-3.12-2.3-5.26-2.3h-11.97v31.1c0,0.63-0.21,1.16-0.62,1.57c-0.41,0.41-0.94,0.62-1.57,0.62c-0.58,0-1.08-0.21-1.5-0.62   c-0.41-0.41-0.62-0.89-0.62-1.42v-31.9c0-0.88,0.3-1.63,0.91-2.26c0.61-0.63,1.4-0.95,2.37-0.95h12.99   C1123.03,433.92,1124.97,434.42,1126.74,435.42z"/>
	<path class="st0" d="M1201.02,420.6c0.44,0.41,0.66,0.89,0.66,1.42c0,0.54-0.22,1.01-0.66,1.42c-0.44,0.41-0.95,0.62-1.53,0.62   h-14.16v44.89c0,0.58-0.22,1.08-0.66,1.5c-0.44,0.41-0.92,0.62-1.46,0.62c-0.63,0-1.17-0.21-1.61-0.62   c-0.44-0.41-0.66-0.89-0.66-1.42v-44.97h-14.31c-0.58,0-1.09-0.21-1.53-0.62c-0.44-0.41-0.66-0.89-0.66-1.42   c0-0.54,0.22-1.01,0.66-1.42c0.44-0.41,0.95-0.62,1.53-0.62h32.7C1200.02,419.98,1200.58,420.19,1201.02,420.6z"/>
	<path class="st0" d="M1217.22,433.74c0.39,0.37,0.58,0.82,0.58,1.35c0,0.54-0.19,1-0.58,1.39s-0.88,0.58-1.46,0.58h-2.41   c-3.36,0-5.88,0.92-7.56,2.77c-1.68,1.85-2.52,4.43-2.52,7.74v21.54c0,0.58-0.21,1.06-0.62,1.42c-0.41,0.37-0.94,0.55-1.57,0.55   c-0.63,0-1.14-0.18-1.53-0.55c-0.39-0.36-0.58-0.84-0.58-1.42v-33.87c0-0.58,0.19-1.07,0.58-1.46s0.9-0.58,1.53-0.58   c0.68,0,1.17,0.27,1.46,0.8l0.07,4.09c2.09-3.26,5.67-4.89,10.73-4.89h2.26C1216.3,433.19,1216.83,433.38,1217.22,433.74z"/>
	<path class="st0" d="M1225.55,420.93c0.39-0.39,0.9-0.58,1.53-0.58c0.63,0,1.16,0.2,1.57,0.58c0.41,0.39,0.62,0.88,0.62,1.46v1.39   c0,0.58-0.21,1.06-0.62,1.42c-0.41,0.37-0.94,0.55-1.57,0.55c-0.63,0-1.14-0.18-1.53-0.55c-0.39-0.36-0.58-0.84-0.58-1.42v-1.39   C1224.96,421.8,1225.16,421.32,1225.55,420.93z M1225.55,434.51c0.39-0.39,0.9-0.58,1.53-0.58c0.63,0,1.16,0.2,1.57,0.58   c0.41,0.39,0.62,0.88,0.62,1.46v33.14c0,0.58-0.21,1.06-0.62,1.42c-0.41,0.37-0.94,0.55-1.57,0.55c-0.63,0-1.14-0.18-1.53-0.55   c-0.39-0.36-0.58-0.84-0.58-1.42v-33.14C1224.96,435.38,1225.16,434.9,1225.55,434.51z"/>
	<path class="st0" d="M1239.67,420.56c0.41-0.39,0.91-0.58,1.5-0.58c0.63,0,1.16,0.19,1.57,0.58c0.41,0.39,0.62,0.88,0.62,1.46v11.9   h11.83c2.09,0,4.03,0.5,5.8,1.5c1.78,1,3.19,2.42,4.23,4.27c1.05,1.85,1.57,3.99,1.57,6.42v11.17c0,2.04-0.4,4.12-1.2,6.24   c-0.8,2.12-2.08,3.91-3.83,5.37s-3.99,2.19-6.72,2.19h-12.7c-0.92,0-1.7-0.32-2.34-0.95c-0.63-0.63-0.95-1.39-0.95-2.26v-45.84   C1239.05,421.44,1239.26,420.95,1239.67,420.56z M1255.04,466.99c2.09,0,3.86-0.92,5.29-2.77c1.43-1.85,2.15-4.23,2.15-7.15v-10.95   c0-2.43-0.73-4.43-2.19-5.99c-1.46-1.56-3.16-2.34-5.11-2.34h-11.83v29.2H1255.04z"/>
	<path class="st0" d="M1302.01,434.58c0.41,0.44,0.62,0.9,0.62,1.39v31.9c0,0.88-0.3,1.63-0.91,2.26c-0.61,0.63-1.4,0.95-2.37,0.95   h-12.99c-2.09,0-4.03-0.49-5.8-1.46c-1.78-0.97-3.19-2.38-4.23-4.23c-1.05-1.85-1.57-4.01-1.57-6.5v-22.92   c0-0.49,0.21-0.95,0.62-1.39c0.41-0.44,0.94-0.66,1.57-0.66c0.58,0,1.07,0.22,1.46,0.66c0.39,0.44,0.58,0.9,0.58,1.39v22.92   c0,2.39,0.74,4.37,2.23,5.95c1.48,1.58,3.2,2.37,5.15,2.37h11.97v-31.1c0-0.58,0.19-1.09,0.58-1.53s0.9-0.66,1.53-0.66   C1301.08,433.92,1301.6,434.14,1302.01,434.58z"/>
	<path class="st0" d="M1315.23,426.29c0.41-0.41,0.94-0.62,1.57-0.62c0.63,0,1.14,0.2,1.53,0.58c0.39,0.39,0.58,0.88,0.58,1.46v6.21   h9.42c0.68,0,1.23,0.2,1.64,0.58c0.41,0.39,0.62,0.88,0.62,1.46s-0.19,1.06-0.58,1.42s-0.9,0.55-1.53,0.55h-9.56v21.68   c0,2.82,0.51,4.88,1.53,6.17c1.02,1.29,2.8,1.93,5.33,1.93h2.7c0.63,0,1.14,0.21,1.53,0.62c0.39,0.41,0.58,0.91,0.58,1.5   s-0.19,1.06-0.58,1.42s-0.9,0.55-1.53,0.55h-2.7c-3.89,0-6.73-1.02-8.5-3.07c-1.78-2.04-2.66-5.08-2.66-9.13v-21.68h-3.87   c-0.63,0-1.14-0.18-1.53-0.55c-0.39-0.37-0.58-0.84-0.58-1.42c0-0.63,0.19-1.13,0.58-1.5c0.39-0.37,0.9-0.55,1.53-0.55h3.87v-6.21   C1314.61,427.18,1314.81,426.71,1315.23,426.29z"/>
	<path class="st0" d="M1338.77,434.47c0.39-0.37,0.9-0.55,1.53-0.55h13.07c2.92,0,5.34,1.02,7.26,3.07   c1.92,2.04,2.88,4.58,2.88,7.59v23.43c0,0.88-0.3,1.61-0.91,2.19c-0.61,0.58-1.35,0.88-2.23,0.88h-13.58   c-1.95,0-3.74-0.47-5.37-1.42c-1.63-0.95-2.92-2.23-3.87-3.83c-0.95-1.61-1.42-3.36-1.42-5.26c0-1.9,0.47-3.66,1.42-5.29   c0.95-1.63,2.24-2.92,3.87-3.87c1.63-0.95,3.42-1.42,5.37-1.42h12.41v-5.18c0-2-0.56-3.66-1.68-5c-1.12-1.34-2.58-2.01-4.38-2.01   h-12.78c-0.68,0-1.22-0.18-1.61-0.55c-0.39-0.36-0.58-0.84-0.58-1.42C1338.18,435.29,1338.38,434.84,1338.77,434.47z M1359.21,454   h-12.41c-1.7,0-3.2,0.65-4.49,1.93c-1.29,1.29-1.93,2.84-1.93,4.64c0,1.75,0.64,3.27,1.93,4.56c1.29,1.29,2.79,1.93,4.49,1.93   h12.41V454z"/>
	<path class="st0" d="M1390.89,433.74c0.39,0.37,0.58,0.82,0.58,1.35c0,0.54-0.19,1-0.58,1.39s-0.88,0.58-1.46,0.58h-2.41   c-3.36,0-5.88,0.92-7.56,2.77c-1.68,1.85-2.52,4.43-2.52,7.74v21.54c0,0.58-0.21,1.06-0.62,1.42c-0.41,0.37-0.94,0.55-1.57,0.55   c-0.63,0-1.14-0.18-1.53-0.55c-0.39-0.36-0.58-0.84-0.58-1.42v-33.87c0-0.58,0.19-1.07,0.58-1.46s0.9-0.58,1.53-0.58   c0.68,0,1.17,0.27,1.46,0.8l0.07,4.09c2.09-3.26,5.67-4.89,10.73-4.89h2.26C1389.96,433.19,1390.5,433.38,1390.89,433.74z"/>
	<path class="st0" d="M1399.21,420.93c0.39-0.39,0.9-0.58,1.53-0.58c0.63,0,1.16,0.2,1.57,0.58c0.41,0.39,0.62,0.88,0.62,1.46v1.39   c0,0.58-0.21,1.06-0.62,1.42c-0.41,0.37-0.94,0.55-1.57,0.55c-0.63,0-1.14-0.18-1.53-0.55c-0.39-0.36-0.58-0.84-0.58-1.42v-1.39   C1398.63,421.8,1398.82,421.32,1399.21,420.93z M1399.21,434.51c0.39-0.39,0.9-0.58,1.53-0.58c0.63,0,1.16,0.2,1.57,0.58   c0.41,0.39,0.62,0.88,0.62,1.46v33.14c0,0.58-0.21,1.06-0.62,1.42c-0.41,0.37-0.94,0.55-1.57,0.55c-0.63,0-1.14-0.18-1.53-0.55   c-0.39-0.36-0.58-0.84-0.58-1.42v-33.14C1398.63,435.38,1398.82,434.9,1399.21,434.51z"/>
	<path class="st0" d="M1413.3,434.47c0.39-0.37,0.9-0.55,1.53-0.55h13.07c2.92,0,5.34,1.02,7.26,3.07c1.92,2.04,2.88,4.58,2.88,7.59   v23.43c0,0.88-0.3,1.61-0.91,2.19c-0.61,0.58-1.35,0.88-2.23,0.88h-13.58c-1.95,0-3.74-0.47-5.37-1.42   c-1.63-0.95-2.92-2.23-3.87-3.83c-0.95-1.61-1.42-3.36-1.42-5.26c0-1.9,0.47-3.66,1.42-5.29c0.95-1.63,2.24-2.92,3.87-3.87   c1.63-0.95,3.42-1.42,5.37-1.42h12.41v-5.18c0-2-0.56-3.66-1.68-5c-1.12-1.34-2.58-2.01-4.38-2.01h-12.78   c-0.68,0-1.22-0.18-1.61-0.55c-0.39-0.36-0.58-0.84-0.58-1.42C1412.71,435.29,1412.91,434.84,1413.3,434.47z M1433.74,454h-12.41   c-1.7,0-3.2,0.65-4.49,1.93c-1.29,1.29-1.93,2.84-1.93,4.64c0,1.75,0.64,3.27,1.93,4.56c1.29,1.29,2.79,1.93,4.49,1.93h12.41V454z"/>
	<path class="st0" d="M1517.36,421.59c1.05,1.07,1.57,2.34,1.57,3.8v43.58c0,0.58-0.21,1.08-0.62,1.5   c-0.41,0.41-0.94,0.62-1.57,0.62c-0.63,0-1.17-0.21-1.61-0.62c-0.44-0.41-0.66-0.91-0.66-1.5v-37.52c0-0.54-0.19-1-0.58-1.39   c-0.39-0.39-0.83-0.58-1.31-0.58c-0.39,0-0.75,0.13-1.1,0.4c-0.34,0.27-0.58,0.6-0.73,0.99l-12.26,38.18   c-0.44,1.36-1.36,2.04-2.77,2.04c-1.46,0-2.43-0.66-2.92-1.97l-11.17-37.74c-0.15-0.39-0.41-0.73-0.8-1.02   c-0.39-0.29-0.78-0.44-1.17-0.44c-0.49,0-0.93,0.21-1.31,0.62c-0.39,0.41-0.58,0.89-0.58,1.42v37.01c0,0.58-0.21,1.08-0.62,1.5   c-0.41,0.41-0.94,0.62-1.57,0.62c-0.68,0-1.23-0.21-1.64-0.62c-0.41-0.41-0.62-0.91-0.62-1.5v-43.58c0-1.46,0.54-2.72,1.61-3.8   c1.07-1.07,2.36-1.61,3.87-1.61c1.26,0,2.37,0.34,3.32,1.02c0.95,0.68,1.59,1.58,1.93,2.7l11.68,39.35l12.48-39.49   c0.39-1.07,1.07-1.93,2.04-2.59c0.97-0.66,2.07-0.99,3.29-0.99C1515.03,419.98,1516.31,420.52,1517.36,421.59z"/>
	<path class="st0" d="M1557.36,434.58c0.41,0.44,0.62,0.9,0.62,1.39v31.9c0,0.88-0.3,1.63-0.91,2.26c-0.61,0.63-1.4,0.95-2.37,0.95   h-12.99c-2.09,0-4.03-0.49-5.8-1.46c-1.78-0.97-3.19-2.38-4.23-4.23c-1.05-1.85-1.57-4.01-1.57-6.5v-22.92   c0-0.49,0.21-0.95,0.62-1.39c0.41-0.44,0.94-0.66,1.57-0.66c0.58,0,1.07,0.22,1.46,0.66c0.39,0.44,0.58,0.9,0.58,1.39v22.92   c0,2.39,0.74,4.37,2.23,5.95c1.48,1.58,3.2,2.37,5.15,2.37h11.97v-31.1c0-0.58,0.19-1.09,0.58-1.53s0.9-0.66,1.53-0.66   C1556.42,433.92,1556.95,434.14,1557.36,434.58z"/>
	<path class="st0" d="M1589.19,435.42c1.78,1,3.19,2.42,4.23,4.27s1.57,3.99,1.57,6.42v22.92c0,0.54-0.22,1.01-0.66,1.42   c-0.44,0.41-0.95,0.62-1.53,0.62s-1.08-0.21-1.5-0.62c-0.41-0.41-0.62-0.89-0.62-1.42v-22.92c0-2.48-0.68-4.49-2.04-6.02   c-1.36-1.53-3.12-2.3-5.26-2.3h-11.97v31.1c0,0.63-0.21,1.16-0.62,1.57c-0.41,0.41-0.94,0.62-1.57,0.62c-0.58,0-1.08-0.21-1.5-0.62   c-0.41-0.41-0.62-0.89-0.62-1.42v-31.9c0-0.88,0.3-1.63,0.91-2.26c0.61-0.63,1.4-0.95,2.37-0.95h12.99   C1585.48,433.92,1587.41,434.42,1589.19,435.42z"/>
	<path class="st0" d="M1605.36,420.93c0.39-0.39,0.9-0.58,1.53-0.58c0.63,0,1.16,0.2,1.57,0.58c0.41,0.39,0.62,0.88,0.62,1.46v1.39   c0,0.58-0.21,1.06-0.62,1.42c-0.41,0.37-0.94,0.55-1.57,0.55c-0.63,0-1.14-0.18-1.53-0.55c-0.39-0.36-0.58-0.84-0.58-1.42v-1.39   C1604.77,421.8,1604.97,421.32,1605.36,420.93z M1605.36,434.51c0.39-0.39,0.9-0.58,1.53-0.58c0.63,0,1.16,0.2,1.57,0.58   c0.41,0.39,0.62,0.88,0.62,1.46v33.14c0,0.58-0.21,1.06-0.62,1.42c-0.41,0.37-0.94,0.55-1.57,0.55c-0.63,0-1.14-0.18-1.53-0.55   c-0.39-0.36-0.58-0.84-0.58-1.42v-33.14C1604.77,435.38,1604.97,434.9,1605.36,434.51z"/>
	<path class="st0" d="M1641.67,434.47c0.37,0.37,0.55,0.82,0.55,1.35c0,0.58-0.17,1.06-0.51,1.42c-0.34,0.37-0.83,0.55-1.46,0.55   H1632c-3.5,0-6.06,0.91-7.67,2.74c-1.61,1.83-2.41,4.59-2.41,8.29v6.93c0,3.89,0.84,6.78,2.52,8.65c1.68,1.87,4.2,2.81,7.56,2.81   h8.25c0.58,0,1.06,0.18,1.42,0.55c0.37,0.37,0.55,0.84,0.55,1.42c0,0.54-0.17,0.99-0.51,1.35c-0.34,0.37-0.83,0.55-1.46,0.55H1632   c-9.59,0-14.38-5.13-14.38-15.4v-6.86c0-4.87,1.2-8.57,3.61-11.1c2.41-2.53,6-3.8,10.77-3.8h8.25   C1640.83,433.92,1641.31,434.11,1641.67,434.47z"/>
	<path class="st0" d="M1651.35,420.93c0.39-0.39,0.9-0.58,1.53-0.58c0.63,0,1.16,0.2,1.57,0.58c0.41,0.39,0.62,0.88,0.62,1.46v1.39   c0,0.58-0.21,1.06-0.62,1.42c-0.41,0.37-0.94,0.55-1.57,0.55c-0.63,0-1.14-0.18-1.53-0.55c-0.39-0.36-0.58-0.84-0.58-1.42v-1.39   C1650.76,421.8,1650.96,421.32,1651.35,420.93z M1651.35,434.51c0.39-0.39,0.9-0.58,1.53-0.58c0.63,0,1.16,0.2,1.57,0.58   c0.41,0.39,0.62,0.88,0.62,1.46v33.14c0,0.58-0.21,1.06-0.62,1.42c-0.41,0.37-0.94,0.55-1.57,0.55c-0.63,0-1.14-0.18-1.53-0.55   c-0.39-0.36-0.58-0.84-0.58-1.42v-33.14C1650.76,435.38,1650.96,434.9,1651.35,434.51z"/>
	<path class="st0" d="M1666.42,434.91c0.66-0.66,1.45-0.99,2.37-0.99h12.63c2.72,0,4.98,0.73,6.75,2.19   c1.78,1.46,3.07,3.26,3.87,5.4c0.8,2.14,1.2,4.21,1.2,6.21v11.17c0,2.48-0.54,4.65-1.61,6.5c-1.07,1.85-2.49,3.26-4.27,4.23   c-1.78,0.97-3.71,1.46-5.8,1.46h-11.83v11.83c0,0.58-0.2,1.07-0.58,1.46c-0.39,0.39-0.9,0.58-1.53,0.58c-0.58,0-1.09-0.2-1.53-0.58   c-0.44-0.39-0.66-0.88-0.66-1.46v-45.77C1665.43,436.31,1665.76,435.57,1666.42,434.91z M1681.57,467.21   c1.99,0,3.72-0.78,5.18-2.34c1.46-1.56,2.19-3.55,2.19-5.99v-10.95c0-2.92-0.72-5.3-2.15-7.15c-1.44-1.85-3.22-2.77-5.37-2.77   h-11.68v29.2H1681.57z"/>
	<path class="st0" d="M1702.37,434.47c0.39-0.37,0.9-0.55,1.53-0.55h13.07c2.92,0,5.34,1.02,7.26,3.07   c1.92,2.04,2.88,4.58,2.88,7.59v23.43c0,0.88-0.3,1.61-0.91,2.19c-0.61,0.58-1.35,0.88-2.23,0.88h-13.58   c-1.95,0-3.74-0.47-5.37-1.42c-1.63-0.95-2.92-2.23-3.87-3.83c-0.95-1.61-1.42-3.36-1.42-5.26c0-1.9,0.47-3.66,1.42-5.29   c0.95-1.63,2.24-2.92,3.87-3.87c1.63-0.95,3.42-1.42,5.37-1.42h12.41v-5.18c0-2-0.56-3.66-1.68-5c-1.12-1.34-2.58-2.01-4.38-2.01   h-12.78c-0.68,0-1.22-0.18-1.61-0.55c-0.39-0.36-0.58-0.84-0.58-1.42C1701.79,435.29,1701.98,434.84,1702.37,434.47z M1722.81,454   h-12.41c-1.7,0-3.2,0.65-4.49,1.93c-1.29,1.29-1.93,2.84-1.93,4.64c0,1.75,0.64,3.27,1.93,4.56c1.29,1.29,2.79,1.93,4.49,1.93   h12.41V454z"/>
	<path class="st0" d="M1737.45,420.56c0.41-0.39,0.94-0.58,1.57-0.58c0.63,0,1.16,0.21,1.57,0.62c0.41,0.41,0.62,0.94,0.62,1.57   v46.72c0,0.63-0.21,1.16-0.62,1.57c-0.41,0.41-0.94,0.62-1.57,0.62c-0.63,0-1.16-0.19-1.57-0.58c-0.41-0.39-0.62-0.88-0.62-1.46   v-47.01C1736.83,421.44,1737.03,420.95,1737.45,420.56z"/>
</g>
</svg>